<svg width="80" height="24" viewBox="0 0 80 24" fill="none" xmlns="http://www.w3.org/2000/svg">
<path d="M56.32 4.70399H52.096C52 4.70399 51.904 4.80001 51.904 4.89601V7.34399C51.904 7.43999 52 7.53601 52.096 7.53601H56.32C56.416 7.53601 56.512 7.43999 56.512 7.34399V4.89601C56.56 4.80001 56.464 4.70399 56.32 4.70399ZM56.272 8.352H48.112C48.016 8.352 47.872 8.44799 47.824 8.54399L46.768 12.528L46.72 12.72L45.472 8.448C45.424 8.352 45.328 8.25601 45.184 8.25601H42.016C41.92 8.25601 41.776 8.352 41.728 8.448L40.528 12.432L40.48 12.624L40.432 12.528L39.952 10.56L39.424 8.592C39.376 8.496 39.28 8.4 39.136 8.4H32.752V4.94399C32.752 4.84799 32.608 4.704 32.464 4.752L28.432 6C28.288 6.048 28.24 6.096 28.24 6.192V8.352H27.184C27.088 8.352 26.992 8.44799 26.992 8.54399V11.616C26.992 11.712 27.088 11.808 27.184 11.808H28.24V15.552C28.24 18.192 29.68 19.44 32.32 19.44C33.424 19.44 34.48 19.2 35.2 18.816V15.648C35.2 15.504 35.056 15.456 34.96 15.456C34.528 15.648 34.192 15.696 33.808 15.696C33.088 15.696 32.704 15.408 32.704 14.592V11.856H35.008C35.104 11.856 35.2 11.76 35.2 11.664V9.072L38.224 19.104C38.272 19.2 38.368 19.296 38.512 19.296H41.872C41.968 19.296 42.112 19.2 42.16 19.104L43.6 14.64L44.32 16.944L44.992 19.056C45.04 19.152 45.136 19.248 45.28 19.248H48.64C48.736 19.248 48.88 19.152 48.928 19.056L52 8.97601V19.056C52 19.152 52.096 19.248 52.192 19.248H56.272C56.368 19.248 56.464 19.152 56.464 19.056V8.592C56.464 8.448 56.368 8.352 56.272 8.352ZM61.648 4.70399H57.568C57.472 4.70399 57.376 4.80001 57.376 4.89601V19.056C57.376 19.152 57.472 19.248 57.568 19.248H61.648C61.744 19.248 61.84 19.152 61.84 19.056V4.89601C61.84 4.80001 61.744 4.70399 61.648 4.70399ZM67.072 4.70399H62.848C62.752 4.70399 62.656 4.80001 62.656 4.89601V7.34399C62.656 7.43999 62.752 7.53601 62.848 7.53601H67.072C67.168 7.53601 67.264 7.43999 67.264 7.34399V4.89601C67.312 4.80001 67.216 4.70399 67.072 4.70399ZM67.024 8.352H62.944C62.848 8.352 62.752 8.44799 62.752 8.54399V19.056C62.752 19.152 62.848 19.248 62.944 19.248H67.024C67.12 19.248 67.216 19.152 67.216 19.056V8.592C67.216 8.448 67.12 8.352 67.024 8.352ZM73.792 8.112C70.192 8.112 67.648 10.752 67.648 13.824V13.872C67.648 16.944 70.192 19.536 73.744 19.536C77.344 19.536 79.888 16.896 79.888 13.824V13.776C79.888 10.704 77.344 8.112 73.792 8.112ZM75.52 13.824C75.52 14.88 74.8 15.696 73.792 15.696C72.784 15.696 72.016 14.832 72.016 13.776V13.728C72.016 12.672 72.736 11.856 73.744 11.856C74.752 11.856 75.52 12.72 75.52 13.824ZM12.112 0C5.488 0 0.112 5.376 0.112 12C0.112 18.624 5.488 24 12.112 24C18.736 24 24.112 18.624 24.112 12C24.112 5.376 18.736 0 12.112 0ZM12.112 20.832C7.216 20.832 3.28 16.896 3.28 12C3.28 7.104 7.216 3.168 12.112 3.168C17.008 3.168 20.944 7.104 20.944 12C20.944 16.896 17.008 20.832 12.112 20.832Z" fill="white"/>
<path d="M15.088 11.52C16.4665 11.52 17.584 10.4025 17.584 9.02399C17.584 7.64549 16.4665 6.528 15.088 6.528C13.7095 6.528 12.592 7.64549 12.592 9.02399C12.592 10.4025 13.7095 11.52 15.088 11.52Z" fill="white"/>
<path d="M15.088 17.472C16.4665 17.472 17.584 16.3545 17.584 14.976C17.584 13.5975 16.4665 12.48 15.088 12.48C13.7095 12.48 12.592 13.5975 12.592 14.976C12.592 16.3545 13.7095 17.472 15.088 17.472Z" fill="white"/>
<path d="M9.136 17.472C10.5145 17.472 11.632 16.3545 11.632 14.976C11.632 13.5975 10.5145 12.48 9.136 12.48C7.7575 12.48 6.64001 13.5975 6.64001 14.976C6.64001 16.3545 7.7575 17.472 9.136 17.472Z" fill="white"/>
<path d="M9.136 11.52C10.5145 11.52 11.632 10.4025 11.632 9.02399C11.632 7.64549 10.5145 6.528 9.136 6.528C7.7575 6.528 6.64001 7.64549 6.64001 9.02399C6.64001 10.4025 7.7575 11.52 9.136 11.52Z" fill="white"/>
</svg>
