<svg width="94" height="24" viewBox="0 0 94 24" fill="none" xmlns="http://www.w3.org/2000/svg">
<path d="M29.6473 18.4416L30.8172 15.8106C32.0815 16.7241 33.7609 17.1992 35.4214 17.1992C36.6479 17.1992 37.4215 16.7424 37.4215 16.0481C37.4027 14.1114 30.0813 15.6279 30.0247 10.7678C30.0059 8.30124 32.2702 6.40111 35.478 6.40111C37.3838 6.40111 39.2896 6.85787 40.6482 7.89931L39.5538 10.5851C38.3084 9.81772 36.7611 9.26962 35.2893 9.26962C34.2892 9.26962 33.6288 9.72643 33.6288 10.311C33.6476 12.2112 41.0256 11.1698 41.1011 15.8106C41.1011 18.3319 38.8933 20.1042 35.7233 20.1042C33.4023 20.1042 31.2701 19.5744 29.6473 18.4416Z" fill="white"/>
<path d="M74.5376 14.8605C73.9527 15.8472 72.8582 16.5231 71.594 16.5231C69.7259 16.5231 68.2164 15.0615 68.2164 13.2527C68.2164 11.4439 69.7259 9.98218 71.594 9.98218C72.8582 9.98218 73.9527 10.6582 74.5376 11.6449L77.7643 9.90908C76.5567 7.82623 74.2357 6.40111 71.594 6.40111C67.688 6.40111 64.518 9.4706 64.518 13.2527C64.518 17.0347 67.688 20.1042 71.594 20.1042C74.2546 20.1042 76.5567 18.6974 77.7643 16.5962L74.5376 14.8605Z" fill="white"/>
<path d="M42.7238 0.718873H46.7619V19.8484H42.7238V0.718873Z" fill="white"/>
<path d="M79.3493 0.718873V19.8484H83.3874V14.1114L88.1802 19.8484H93.3504L87.2556 13.0335L92.8976 6.67517H87.9538L83.3874 11.9555V0.718873H79.3493Z" fill="white"/>
<path d="M58.7628 14.897C58.1778 15.8288 56.9702 16.5231 55.6116 16.5231C53.7435 16.5231 52.234 15.0615 52.234 13.2527C52.234 11.4439 53.7435 9.98218 55.6116 9.98218C56.9702 9.98218 58.1778 10.713 58.7628 11.6631V14.897ZM58.7628 6.67517V8.22821C58.1024 7.15021 56.4608 6.40111 54.7437 6.40111C51.1962 6.40111 48.4035 9.43409 48.4035 13.2344C48.4035 17.0347 51.1962 20.1042 54.7437 20.1042C56.4608 20.1042 58.1024 19.3551 58.7628 18.2772V19.8302H62.8009V6.67517H58.7628Z" fill="white"/>
<path d="M5.0637 15.172C5.0637 16.5669 3.93631 17.6943 2.5414 17.6943C1.1465 17.6943 0.0191086 16.5669 0.0191086 15.172C0.0191086 13.7771 1.1465 12.6497 2.5414 12.6497H5.0637V15.172Z" fill="white"/>
<path d="M6.32485 15.172C6.32485 13.7771 7.45224 12.6497 8.84715 12.6497C10.2421 12.6497 11.3694 13.7771 11.3694 15.172V21.4777C11.3694 22.8726 10.2421 24 8.84715 24C7.45224 24 6.32485 22.8726 6.32485 21.4777V15.172Z" fill="white"/>
<path d="M8.84715 5.04459C7.45224 5.04459 6.32485 3.9172 6.32485 2.5223C6.32485 1.12739 7.45224 0 8.84715 0C10.2421 0 11.3694 1.12739 11.3694 2.5223V5.04459H8.84715Z" fill="white"/>
<path d="M8.84715 6.32485C10.2421 6.32485 11.3694 7.45228 11.3694 8.84718C11.3694 10.2421 10.2421 11.3694 8.84715 11.3694H2.5223C1.12739 11.3694 0 10.2421 0 8.84718C0 7.45228 1.12739 6.32485 2.5223 6.32485H8.84715Z" fill="white"/>
<path d="M18.9554 8.84718C18.9554 7.45228 20.0828 6.32485 21.4777 6.32485C22.8726 6.32485 24 7.45228 24 8.84718C24 10.2421 22.8726 11.3694 21.4777 11.3694H18.9554V8.84718Z" fill="white"/>
<path d="M17.6943 8.84718C17.6943 10.2421 16.5669 11.3694 15.172 11.3694C13.7771 11.3694 12.6497 10.2421 12.6497 8.84718V2.5223C12.6497 1.12739 13.7771 0 15.172 0C16.5669 0 17.6943 1.12739 17.6943 2.5223V8.84718Z" fill="white"/>
<path d="M15.172 18.9554C16.5669 18.9554 17.6943 20.0828 17.6943 21.4777C17.6943 22.8726 16.5669 24 15.172 24C13.7771 24 12.6497 22.8726 12.6497 21.4777V18.9554H15.172Z" fill="white"/>
<path d="M15.172 17.6943C13.7771 17.6943 12.6497 16.5669 12.6497 15.172C12.6497 13.7771 13.7771 12.6497 15.172 12.6497H21.4969C22.8918 12.6497 24.0191 13.7771 24.0191 15.172C24.0191 16.5669 22.8918 17.6943 21.4969 17.6943H15.172Z" fill="white"/>
</svg>
