<svg width="74" height="24" viewBox="0 0 74 24" fill="none" xmlns="http://www.w3.org/2000/svg">
<path d="M18.0022 8.47741H9.4593V11.0123H15.5185C15.2183 14.5605 12.2617 16.0835 9.46954 16.0835C8.585 16.0874 7.70855 15.915 6.89135 15.5764C6.07416 15.2379 5.33259 14.7399 4.70996 14.1116C4.08732 13.4834 3.59609 12.7373 3.26493 11.9171C2.93378 11.0969 2.76934 10.2189 2.78122 9.33443C2.78122 5.49694 5.75214 2.5424 9.47773 2.5424C12.3517 2.5424 14.0453 4.37449 14.0453 4.37449L15.8194 2.53626C15.8194 2.53626 13.5404 0 9.38493 0C4.09337 0 0 4.46593 0 9.2894C0 14.016 3.85045 18.6252 9.51867 18.6252C14.5045 18.6252 18.1544 15.2094 18.1544 10.1587C18.1544 9.09288 17.9995 8.47741 17.9995 8.47741H18.0022Z" fill="white"/>
<path d="M25.001 6.64123C21.4951 6.64123 18.9827 9.3822 18.9827 12.5776C18.9827 15.8215 21.4187 18.6129 25.0419 18.6129C28.3213 18.6129 31.0077 16.1067 31.0077 12.6472C31.0077 8.68962 27.8825 6.64123 25.001 6.64123ZM25.0351 8.99258C26.7587 8.99258 28.3922 10.3866 28.3922 12.6322C28.3922 14.8293 26.7655 16.2636 25.0269 16.2636C23.1164 16.2636 21.6152 14.7338 21.6152 12.6144C21.6152 10.5401 23.1027 8.99258 25.0406 8.99258H25.0351Z" fill="white"/>
<path d="M38.089 6.64123C34.5831 6.64123 32.0707 9.3822 32.0707 12.5776C32.0707 15.8215 34.5067 18.6129 38.1299 18.6129C41.4093 18.6129 44.0956 16.1067 44.0956 12.6472C44.0956 8.68962 40.9705 6.64123 38.089 6.64123ZM38.1231 8.99258C39.8467 8.99258 41.4802 10.3866 41.4802 12.6322C41.4802 14.8293 39.8535 16.2636 38.1149 16.2636C36.2044 16.2636 34.7032 14.7338 34.7032 12.6144C34.7032 10.5401 36.1907 8.99258 38.1286 8.99258H38.1231Z" fill="white"/>
<path d="M50.9259 6.64805C47.708 6.64805 45.1792 9.46612 45.1792 12.6295C45.1792 16.2322 48.1112 18.6218 50.8699 18.6218C52.5758 18.6218 53.4833 17.9442 54.1452 17.167V18.3475C54.1452 20.4129 52.891 21.65 50.9982 21.65C49.1695 21.65 48.2525 20.2901 47.9277 19.5191L45.6268 20.4743C46.4429 22.2007 48.086 24 51.0173 24C54.2243 24 56.6548 21.985 56.6548 17.7586V7.00765H54.1547V8.02161C53.3837 7.18915 52.3274 6.64805 50.9272 6.64805H50.9259ZM51.1579 8.99531C52.7355 8.99531 54.3553 10.3422 54.3553 12.6424C54.3553 14.9808 52.7382 16.2691 51.1231 16.2691C49.4077 16.2691 47.8117 14.8771 47.8117 12.6643C47.8117 10.3661 49.4698 8.99531 51.1579 8.99531Z" fill="white"/>
<path d="M67.8288 6.63372C64.7938 6.63372 62.2453 9.04921 62.2453 12.611C62.2453 16.3817 65.0858 18.6177 68.1134 18.6177C70.6462 18.6177 72.2074 17.2325 73.1286 15.9907L71.0591 14.6137C70.5221 15.4462 69.6241 16.2616 68.1264 16.2616C66.4437 16.2616 65.6699 15.3404 65.1902 14.4465L73.2166 11.1167L72.8072 10.141C72.0321 8.2304 70.2225 6.63372 67.8288 6.63372ZM67.9333 8.93594C69.027 8.93594 69.8138 9.5173 70.1481 10.2147L64.7877 12.4548C64.5557 10.7203 66.2001 8.93594 67.9264 8.93594H67.9333Z" fill="white"/>
<path d="M58.4125 18.2629H61.0491V0.619565H58.4125V18.2629Z" fill="white"/>
</svg>
