<svg width="90" height="24" viewBox="0 0 90 24" fill="none" xmlns="http://www.w3.org/2000/svg">
<path d="M15.2015 1.16481C14.0759 0.389077 12.607 0.000270601 10.7949 0.000270601H3.77948C3.22397 0.000270601 2.91706 0.278776 2.85876 0.83525L0.00894552 18.7682C-0.0206731 18.9443 0.0232856 19.1054 0.14042 19.2518C0.256884 19.3985 0.403368 19.4715 0.578802 19.4715H3.91109C4.49556 19.4715 4.8168 19.1937 4.87577 18.6365L5.66489 13.8018C5.6937 13.5675 5.7965 13.377 5.97193 13.2303C6.14723 13.0839 6.36649 12.9881 6.62957 12.9443C6.89265 12.9007 7.14072 12.8787 7.37499 12.8787C7.60859 12.8787 7.88615 12.8936 8.2082 12.9228C8.52945 12.9519 8.73423 12.9663 8.82201 12.9663C11.3357 12.9663 13.3088 12.2563 14.7413 10.8346C16.1732 9.41371 16.8899 7.44335 16.8899 4.92269C16.8899 3.19388 16.3266 1.94135 15.2015 1.16441V1.16481ZM11.5845 6.54952C11.4378 7.57528 11.0583 8.24891 10.4445 8.57134C9.83052 8.89418 8.95362 9.05487 7.81378 9.05487L6.36675 9.09866L7.11231 4.3955C7.17048 4.07347 7.36038 3.91225 7.68217 3.91225H8.51551C9.68417 3.91225 10.5324 4.08113 11.0586 4.41754C11.5844 4.75475 11.7599 5.46559 11.5845 6.54952Z" fill="white"/>
<path d="M89.2359 0H85.9917C85.6692 0 85.4795 0.161221 85.4216 0.483793L82.5715 18.7687L82.5275 18.8566C82.5275 19.0038 82.586 19.1423 82.7032 19.2743C82.8194 19.4059 82.9663 19.4719 83.1415 19.4719H86.0358C86.5902 19.4719 86.8973 19.1941 86.9566 18.6369L89.8065 0.659655V0.615992C89.8063 0.205555 89.6157 0.000539151 89.2359 0.000539151V0Z" fill="white"/>
<path d="M50.0375 7.07751C50.0375 6.93134 49.9788 6.79189 49.8626 6.66036C49.7454 6.52856 49.6138 6.46219 49.468 6.46219H46.0918C45.7697 6.46219 45.5066 6.60944 45.3023 6.90165L40.6548 13.7587L38.7255 7.16565C38.5786 6.69717 38.2575 6.46219 37.761 6.46219H34.472C34.3255 6.46219 34.194 6.5283 34.0778 6.66036C33.9606 6.79189 33.9024 6.93161 33.9024 7.07751C33.9024 7.13649 34.1874 8.00063 34.7573 9.67086C35.3272 11.3416 35.941 13.1438 36.5988 15.0779C37.2565 17.0116 37.5998 18.0377 37.6291 18.1539C35.232 21.4363 34.034 23.1944 34.034 23.4285C34.034 23.8098 34.2236 24 34.604 24H37.9801C38.3015 24 38.5644 23.8538 38.7695 23.5607L49.9504 7.38504C50.0085 7.327 50.0375 7.22489 50.0375 7.07738V7.07751Z" fill="white"/>
<path d="M81.4761 6.46219H78.1437C77.734 6.46219 77.4865 6.94585 77.3987 7.91303C76.6377 6.74124 75.2502 6.15454 73.2328 6.15454C71.1283 6.15454 69.3376 6.94585 67.8618 8.52822C66.3854 10.1106 65.6476 11.9719 65.6476 14.1107C65.6476 15.8399 66.1518 17.217 67.16 18.2422C68.1685 19.2685 69.5203 19.7806 71.2163 19.7806C72.0639 19.7806 72.9261 19.6045 73.803 19.2532C74.6799 18.9016 75.3663 18.433 75.8641 17.8467C75.8641 17.8761 75.8343 18.0075 75.7765 18.2418C75.7174 18.4766 75.6886 18.653 75.6886 18.7693C75.6886 19.2387 75.8781 19.4724 76.2587 19.4724H79.2844C79.8391 19.4724 80.161 19.1946 80.2484 18.6375L82.0464 7.16538C82.0752 6.98938 82.0315 6.82856 81.9148 6.68186C81.7972 6.53568 81.6514 6.46219 81.4761 6.46219ZM75.7542 15.1215C75.0088 15.8541 74.1098 16.2202 73.0576 16.2202C72.2095 16.2202 71.5232 15.9862 70.9968 15.5171C70.4703 15.0493 70.2073 14.4045 70.2073 13.5831C70.2073 12.4997 70.5727 11.5832 71.3038 10.8361C72.0336 10.0888 72.9406 9.71533 74.0222 9.71533C74.84 9.71533 75.5197 9.95702 76.061 10.4403C76.6013 10.9239 76.8725 11.5906 76.8725 12.4406C76.8722 13.4954 76.4995 14.3893 75.7542 15.1215Z" fill="white"/>
<path d="M31.666 6.46219H28.3336C27.9237 6.46219 27.6758 6.94585 27.588 7.91303C26.7987 6.74124 25.4102 6.15454 23.4225 6.15454C21.3178 6.15454 19.5272 6.94585 18.0512 8.52822C16.5748 10.1106 15.8371 11.9719 15.8371 14.1107C15.8371 15.8399 16.3414 17.217 17.3499 18.2422C18.3584 19.2685 19.71 19.7806 21.4056 19.7806C22.2237 19.7806 23.0719 19.6045 23.9487 19.2532C24.8256 18.9016 25.5272 18.433 26.0533 17.8467C25.9361 18.198 25.8779 18.5058 25.8779 18.7693C25.8779 19.2387 26.0678 19.4724 26.4479 19.4724H29.4733C30.0282 19.4724 30.3502 19.1946 30.4379 18.6375L32.2356 7.16538C32.2644 6.98938 32.2207 6.82856 32.1041 6.68186C31.9871 6.53568 31.8411 6.46219 31.666 6.46219ZM25.944 15.1433C25.1984 15.8621 24.2845 16.2202 23.2036 16.2202C22.3554 16.2202 21.6758 15.9862 21.1647 15.5171C20.6528 15.0493 20.3972 14.4045 20.3972 13.5831C20.3972 12.4997 20.7625 11.5832 21.4935 10.8361C22.2238 10.0888 23.1301 9.71519 24.212 9.71519C25.0301 9.71519 25.7097 9.95702 26.251 10.4403C26.7914 10.9239 27.0621 11.5906 27.0621 12.4406C27.062 13.5248 26.6894 14.4261 25.944 15.1433Z" fill="white"/>
<path d="M65.0117 1.16481C63.8862 0.389077 62.4177 0.000270601 60.6052 0.000270601H53.6335C53.0487 0.000270601 52.7269 0.278776 52.6689 0.83525L49.8188 18.7682C49.7892 18.9443 49.8332 19.1054 49.9504 19.2518C50.0664 19.3985 50.2132 19.4715 50.3887 19.4715H53.9839C54.3347 19.4715 54.5684 19.2813 54.6857 18.9002L55.4749 13.8018C55.504 13.5675 55.6062 13.377 55.7819 13.2303C55.9574 13.0839 56.1764 12.9881 56.4397 12.9443C56.7025 12.9007 56.9506 12.8787 57.185 12.8787C57.4187 12.8787 57.6962 12.8936 58.0179 12.9228C58.3393 12.9519 58.5446 12.9663 58.6318 12.9663C61.146 12.9663 63.1186 12.2563 64.5512 10.8346C65.9836 9.41371 66.6997 7.44335 66.6997 4.92269C66.6998 3.19388 66.1368 1.94121 65.0117 1.16441V1.16481ZM60.5176 8.39535C59.8744 8.8348 58.9096 9.05446 57.6238 9.05446L56.2205 9.09853L56.9659 4.39523C57.0238 4.07333 57.2138 3.91184 57.5357 3.91184H58.3247C58.9679 3.91184 59.4793 3.94127 59.8599 3.99971C60.2392 4.05856 60.6052 4.2414 60.9559 4.54893C61.3069 4.85672 61.4821 5.30384 61.4821 5.8896C61.4821 7.12078 61.1602 7.95549 60.5176 8.39535Z" fill="white"/>
</svg>
