<svg width="102" height="24" viewBox="0 0 102 24" fill="none" xmlns="http://www.w3.org/2000/svg">
<path d="M40.3494 8.56826H43.5209V18.5518H40.3494V8.56826Z" fill="white"/>
<path d="M44.1831 8.56825H47.2378V9.93319H47.2961C48.0355 8.86069 48.9889 8.2758 50.3704 8.2758C52.5495 8.2758 53.8336 9.83571 53.8336 12.0586V18.5518H50.6622V12.7021C50.6622 11.6491 50.1369 10.9276 49.1057 10.9276C48.0551 10.9276 47.3545 11.8051 47.3545 13.0335V18.5518H44.1831V8.56825Z" fill="white"/>
<path d="M43.8375 5.89724C43.8375 4.84422 42.9857 3.99069 41.9351 3.99069C40.8845 3.99069 40.0327 4.84422 40.0327 5.89724C40.0327 6.95017 40.8845 7.8037 41.9351 7.8037C42.9857 7.8037 43.8375 6.95017 43.8375 5.89724Z" fill="white"/>
<path d="M76.1389 8.42405C76.0484 8.41589 75.9446 8.41225 75.8232 8.41225C74.6169 8.41225 73.7998 8.93871 73.0993 10.1282H73.041V8.56826H70.0057V18.5517H73.1771V14.067C73.1771 11.989 74.3254 11.0261 76.1389 11.1941V8.42405Z" fill="white"/>
<path d="M91.7023 12.2535C90.4376 12.0196 89.3091 11.9221 89.3091 11.2202C89.3091 10.5961 89.9124 10.3037 90.6905 10.3037C91.5661 10.3037 92.1693 10.5766 92.286 11.4736H95.2046C95.0489 9.50424 93.5313 8.27573 90.7102 8.27573C88.3558 8.27573 86.4101 9.3677 86.4101 11.4736C86.4101 13.8134 88.2585 14.2814 89.9902 14.574C91.3132 14.808 92.5195 14.9055 92.5195 15.8024C92.5195 16.4459 91.9164 16.7969 90.963 16.7969C90.0065 16.7969 89.3739 16.3913 89.18 15.5685H86.1579C86.3804 17.6208 88.1779 18.8638 90.9825 18.8638C93.5897 18.8638 95.5158 17.7328 95.5158 15.549C95.5158 12.9945 93.4535 12.546 91.7023 12.2535Z" fill="white"/>
<path d="M81.0586 10.5376C82.0898 10.5376 82.8291 11.2981 82.9459 12.4876H79.0156C79.2296 11.2981 79.8523 10.5376 81.0586 10.5376ZM81.2337 16.5628C79.93 16.5628 79.1907 15.7244 78.9961 14.3789H86.1562C86.1757 12.3511 85.5921 10.6156 84.4051 9.52374C83.549 8.74378 82.4206 8.27575 81.0001 8.27575C77.9649 8.27575 75.8831 10.5571 75.8831 13.5406C75.8831 16.5628 77.9066 18.8443 81.1947 18.8443C82.4593 18.8443 83.4712 18.5128 84.3078 17.9278C85.1834 17.3234 85.7671 16.4654 85.981 15.5685H82.8875C82.615 16.1924 82.0703 16.5628 81.2337 16.5628Z" fill="white"/>
<path d="M101.101 16.1976C100.954 16.2034 100.757 16.212 100.576 16.212C99.8948 16.212 99.4669 16.0169 99.4669 15.2369V10.5571H101.101V8.56825H99.4669V5.40938H96.3732V8.56825H95.3998V10.5571H96.3732V15.9194C96.3732 18.0644 97.6963 18.6688 99.5447 18.6688C100.25 18.6688 100.783 18.6159 101.101 18.5536V16.1976Z" fill="white"/>
<path d="M59.4973 16.2021C59.3707 16.207 59.2247 16.212 59.0883 16.212C58.4074 16.212 57.9792 16.0169 57.9792 15.2369V10.5571H59.4973V8.56824H57.9792V5.40938H54.8857V8.56824H53.8541V10.5571H54.8857V15.9194C54.8857 18.0644 56.2086 18.6688 58.0571 18.6688C58.6825 18.6688 59.1722 18.6271 59.4973 18.5742V16.2021Z" fill="white"/>
<path d="M66.4052 12.4876C66.2885 11.2982 65.5491 10.5376 64.5179 10.5376C63.3116 10.5376 62.689 11.2982 62.4749 12.4876H66.4052ZM59.3425 13.5405C59.3425 10.5571 61.4243 8.27582 64.4596 8.27582C65.8798 8.27582 67.0084 8.74375 67.8645 9.5237C69.0514 10.6157 69.635 12.3511 69.6155 14.379H62.4556C62.65 15.7244 63.3894 16.5629 64.6931 16.5629C65.5296 16.5629 66.0745 16.1924 66.3467 15.5685H69.4404C69.2264 16.4654 68.6427 17.3233 67.7671 17.9279C66.9306 18.5128 65.9188 18.8443 64.6541 18.8443C61.3659 18.8443 59.3425 16.5629 59.3425 13.5405Z" fill="white"/>
<path d="M34.8417 11.1617C36.087 11.1617 36.7874 10.4207 36.7874 9.30912C36.7874 8.19777 36.0674 7.51529 34.8417 7.51529H32.4095V11.1617H34.8417ZM29.1987 4.60992H34.706C36.3987 4.60992 37.6439 5.07786 38.5 5.89686C39.3951 6.73524 39.901 7.9248 39.901 9.32869C39.901 12 38.0526 13.8915 35.1924 13.8915H32.4095V18.5518H29.1987V4.60992Z" fill="white"/>
<path d="M12.8725 0C6.25959 0 0.898682 5.37252 0.898682 12C0.898682 17.0838 4.05338 21.4283 8.50755 23.1767C8.40292 22.2273 8.3083 20.7671 8.54907 19.7306C8.76668 18.7941 9.95315 13.7659 9.95315 13.7659C9.95315 13.7659 9.59499 13.047 9.59499 11.9842C9.59499 10.3156 10.56 9.06991 11.7616 9.06991C12.7832 9.06991 13.2766 9.83855 13.2766 10.7603C13.2766 11.7899 12.6225 13.3292 12.285 14.7557C12.0029 15.9501 12.8826 16.9241 14.0581 16.9241C16.1862 16.9241 17.8222 14.6753 17.8222 11.4291C17.8222 8.55585 15.7621 6.54699 12.8206 6.54699C9.4136 6.54699 7.41384 9.10798 7.41384 11.7546C7.41384 12.786 7.81028 13.892 8.30497 14.4932C8.40283 14.612 8.41716 14.7161 8.38801 14.8374C8.29712 15.2164 8.09512 16.0315 8.05546 16.1983C8.00325 16.4179 7.88193 16.4646 7.655 16.3587C6.15954 15.6611 5.22454 13.4699 5.22454 11.7099C5.22454 7.92453 7.96889 4.44813 13.1361 4.44813C17.2899 4.44813 20.5178 7.41449 20.5178 11.3788C20.5178 15.5144 17.9159 18.8428 14.3045 18.8428C13.0911 18.8428 11.9505 18.2111 11.56 17.4649C11.56 17.4649 10.9596 19.756 10.814 20.3175C10.5437 21.3598 9.81397 22.6663 9.32585 23.4634C10.4462 23.811 11.6382 24 12.8725 24C19.4855 24 24.8464 18.6274 24.8464 12C24.8464 5.37252 19.4855 0 12.8725 0Z" fill="white"/>
</svg>
