<svg width="90" height="24" viewBox="0 0 90 24" fill="none" xmlns="http://www.w3.org/2000/svg">
<path fill-rule="evenodd" clip-rule="evenodd" d="M35.0612 9.2112C33.9242 9.2112 33.3936 10.1208 33.0904 10.6513C32.9388 10.9545 32.9388 11.2577 32.7873 11.2577C32.6357 11.2577 32.7115 11.0303 32.6357 10.5755C32.4841 9.89337 31.9535 9.2112 30.8165 9.2112C29.6038 9.2112 29.0732 10.1966 28.8458 10.8029C28.6942 11.1819 28.6942 11.2577 28.5426 11.2577C28.391 11.2577 28.5426 10.9545 28.6184 10.5755C28.77 9.89337 28.6942 9.36279 28.6942 9.36279H26.7993V16.4877H29.3764C29.3764 16.4877 29.3764 13.5316 29.3764 12.9252C29.3764 12.2431 29.6796 11.3335 30.1344 11.3335C30.7407 11.3335 30.8165 11.7883 30.8165 12.6221V16.4877H33.3936C33.3936 16.4877 33.3936 13.4558 33.3936 12.9252C33.3936 12.3189 33.621 11.3335 34.2274 11.3335C34.8338 11.3335 34.9096 11.9399 34.9096 12.6221V16.4877H37.4866C37.4866 16.4877 37.4866 13.6832 37.4866 12.3189C37.4109 10.4997 36.7287 9.2112 35.0612 9.2112Z" fill="white"/>
<path fill-rule="evenodd" clip-rule="evenodd" d="M79.0232 9.2112C77.8863 9.2112 77.3557 10.1208 77.0525 10.6513C76.9009 10.9545 76.9009 11.2577 76.7493 11.2577C76.5977 11.2577 76.6735 10.9545 76.5977 10.5755C76.3703 9.89337 75.9156 9.2112 74.7786 9.2112C73.5659 9.2112 73.0353 10.1966 72.8079 10.8029C72.6563 11.1819 72.6563 11.2577 72.5047 11.2577C72.3531 11.2577 72.5047 10.9545 72.5805 10.5755C72.7321 9.89337 72.6563 9.36279 72.6563 9.36279H70.7614V16.4877H73.3385C73.3385 16.4877 73.3385 13.5316 73.3385 12.9252C73.3385 12.2431 73.6417 11.3335 74.0964 11.3335C74.7028 11.3335 74.7786 11.7883 74.7786 12.6221V16.4877H77.3557C77.3557 16.4877 77.3557 13.4558 77.3557 12.9252C77.3557 12.3189 77.5831 11.3335 78.1895 11.3335C78.7958 11.3335 78.8716 11.9399 78.8716 12.6221V16.4877H81.4487C81.4487 16.4877 81.4487 13.6832 81.4487 12.3189C81.3729 10.4997 80.7665 9.2112 79.0232 9.2112Z" fill="white"/>
<path d="M41.8071 9.2112C39.8363 9.2112 38.3962 9.96917 38.3962 9.96917V12.0915C38.3962 12.0915 39.9879 11.1819 41.2765 11.1819C42.2618 11.1819 42.4134 11.7125 42.3376 12.1673C42.3376 12.1673 42.0344 12.0915 41.1249 12.0915C39.0026 12.0915 37.9414 13.0768 37.9414 14.5928C37.9414 16.0329 39.1542 16.6393 40.1395 16.6393C41.5797 16.6393 42.2618 15.6539 42.4892 15.1991C42.6408 14.896 42.6408 14.6686 42.7924 14.6686C42.944 14.6686 42.8682 14.8202 42.8682 15.1233C42.8682 15.6539 42.8682 16.1087 42.944 16.4877H44.9147V13.001C44.9905 10.8029 44.1567 9.2112 41.8071 9.2112ZM41.2007 14.896C40.5943 15.0475 40.2911 14.8202 40.2911 14.4412C40.2911 13.9106 40.8975 13.6832 41.7313 13.6832H42.4134C42.4134 13.9106 41.8829 14.7444 41.2007 14.896Z" fill="white"/>
<path fill-rule="evenodd" clip-rule="evenodd" d="M49.2351 7.24049H51.8122V16.5635H49.2351V7.24049Z" fill="white"/>
<path fill-rule="evenodd" clip-rule="evenodd" d="M54.6925 13.001C54.6925 12.3947 55.2989 11.7883 56.36 11.7883C57.5728 11.7883 58.4823 12.3947 58.7097 12.4705V9.96917C58.7097 9.96917 57.9517 9.2112 56.0568 9.2112C54.0861 9.2112 52.4944 10.3482 52.4944 12.8494C52.4944 15.3507 54.0103 16.7151 56.0568 16.7151C57.7244 16.7151 58.7097 15.8055 58.7097 15.8055V13.4558C58.4065 13.6074 57.497 14.2138 56.36 14.2138C55.1473 14.2138 54.6925 13.6832 54.6925 13.001Z" fill="white"/>
<path fill-rule="evenodd" clip-rule="evenodd" d="M63.9397 9.2112C62.4238 9.2112 61.8932 10.6513 61.7416 10.8787C61.59 11.1061 61.59 11.2577 61.4384 11.2577C61.2868 11.2577 61.3626 10.9545 61.4384 10.7271C61.59 10.3482 61.8174 9.43859 61.8174 8.22584C61.8174 7.39208 61.7416 7.16469 61.7416 7.16469H59.4677V16.4877H62.0448C62.0448 16.4877 62.0448 13.5316 62.0448 12.9252C62.0448 12.3189 62.2722 11.3335 62.9543 11.3335C63.4849 11.3335 63.6365 11.7125 63.6365 12.5463V16.4877H66.2136C66.2136 16.4877 66.2136 14.2896 66.2136 12.6978C66.3652 10.9545 66.062 9.2112 63.9397 9.2112Z" fill="white"/>
<path fill-rule="evenodd" clip-rule="evenodd" d="M67.1989 9.43859V16.5635H69.776V9.43859C69.776 9.43859 69.3213 9.66598 68.4875 9.66598C67.6537 9.66598 67.1989 9.43859 67.1989 9.43859Z" fill="white"/>
<path fill-rule="evenodd" clip-rule="evenodd" d="M68.4875 9.287C69.3666 9.287 70.0792 8.8119 70.0792 8.22584C70.0792 7.63978 69.3666 7.16469 68.4875 7.16469C67.6084 7.16469 66.8958 7.63978 66.8958 8.22584C66.8958 8.8119 67.6084 9.287 68.4875 9.287Z" fill="white"/>
<path fill-rule="evenodd" clip-rule="evenodd" d="M45.8243 16.5635H48.4014V9.43859C48.4014 9.43859 47.9466 9.66598 47.1128 9.66598C46.2791 9.66598 45.8243 9.43859 45.8243 9.43859V16.5635Z" fill="white"/>
<path fill-rule="evenodd" clip-rule="evenodd" d="M47.1128 9.287C47.9919 9.287 48.7046 8.8119 48.7046 8.22584C48.7046 7.63978 47.9919 7.16469 47.1128 7.16469C46.2337 7.16469 45.5211 7.63978 45.5211 8.22584C45.5211 8.8119 46.2337 9.287 47.1128 9.287Z" fill="white"/>
<path d="M86.5271 9.2112C85.1628 9.2112 84.5564 10.1966 84.329 10.8029C84.1774 11.1819 84.1774 11.2577 84.0258 11.2577C83.8742 11.2577 84.0258 10.9545 84.1016 10.5755C84.2532 9.89337 84.1774 9.36279 84.1774 9.36279H82.2825V18.4584H84.8596C84.8596 18.4584 84.8596 16.9425 84.8596 15.5781C85.1628 16.1087 85.7691 16.6393 86.6029 16.6393C88.4978 16.6393 89.4074 15.0475 89.4074 12.9252C89.4074 10.5755 88.2704 9.2112 86.5271 9.2112ZM85.8449 15.0475C85.2385 15.0475 84.7838 14.2896 84.7838 13.2284C84.7838 12.2431 85.2385 11.4093 85.7691 11.4093C86.5271 11.4093 86.8303 12.0915 86.8303 13.2284C86.8303 14.3654 86.5271 15.0475 85.8449 15.0475Z" fill="white"/>
<path fill-rule="evenodd" clip-rule="evenodd" d="M17.4763 11.4093H18.0069C18.0827 11.1819 18.0827 10.8787 18.0069 10.4997C17.8553 9.96917 17.7037 9.59019 17.4005 9.66598C17.0973 9.74178 17.0215 10.1208 17.1731 10.7271C17.2489 10.9545 17.4005 11.2577 17.4763 11.4093Z" fill="white"/>
<path fill-rule="evenodd" clip-rule="evenodd" d="M14.6718 11.8641C14.8992 11.9399 15.0508 12.0157 15.1266 11.9399C15.1266 11.9399 15.1266 11.8641 15.1266 11.7125C14.975 11.4851 14.7476 11.3335 14.5203 11.1819C13.9897 10.9545 13.3833 11.0303 12.9285 11.4093C12.7769 11.5609 12.6253 11.7125 12.6253 11.7883C12.6253 11.7883 12.6253 11.8641 12.7011 11.8641C12.8527 11.8641 13.3075 11.6367 13.8381 11.6367C14.1413 11.6367 14.4445 11.7125 14.6718 11.8641Z" fill="white"/>
<path fill-rule="evenodd" clip-rule="evenodd" d="M14.2171 12.0915C13.9139 12.1673 13.7623 12.2431 13.6107 12.3189C13.5349 12.3947 13.4591 12.4705 13.4591 12.5463V12.6221H13.5349C13.6107 12.6221 13.7623 12.5463 13.7623 12.5463C14.2171 12.3947 14.4445 12.3947 14.7476 12.4705H14.975V12.3947C14.8992 12.2431 14.5961 12.0915 14.2171 12.0915Z" fill="white"/>
<path fill-rule="evenodd" clip-rule="evenodd" d="M16.5668 13.1526C16.7942 13.2284 17.0215 13.2284 17.0973 13.0768C17.1731 12.9252 17.0973 12.6978 16.87 12.6221C16.6426 12.5463 16.4152 12.5463 16.3394 12.6978C16.2636 12.7736 16.3394 13.001 16.5668 13.1526Z" fill="white"/>
<path fill-rule="evenodd" clip-rule="evenodd" d="M17.9311 11.9399C17.7795 11.9399 17.6279 12.0915 17.6279 12.3947C17.6279 12.6221 17.7795 12.8494 17.9311 12.8494C18.0827 12.8494 18.2343 12.6978 18.2343 12.3947C18.2343 12.1673 18.0827 11.9399 17.9311 11.9399Z" fill="white"/>
<path fill-rule="evenodd" clip-rule="evenodd" d="M6.41001 16.1845C6.33421 16.1087 6.33421 16.1845 6.25842 16.1845C6.18262 16.1845 6.18262 16.1845 6.10682 16.1845C5.95523 16.1845 5.87943 16.1087 5.80364 16.0329C5.72784 15.8813 5.72784 15.7297 5.80364 15.5023C5.80364 15.5023 5.80364 15.4265 5.87943 15.4265C6.03103 15.1233 6.25842 14.5928 5.95523 14.138C5.72784 13.759 5.42465 13.5316 5.04567 13.4558C4.66669 13.38 4.2877 13.5316 4.06031 13.8348C3.68133 14.2138 3.60553 14.8202 3.68133 15.0475C3.68133 15.1233 3.75713 15.1233 3.75713 15.1233C3.83292 15.1233 3.90872 15.0475 3.98452 14.896C3.98452 14.896 3.98452 14.896 3.98452 14.8202C3.98452 14.7444 4.06031 14.5928 4.13611 14.4412C4.21191 14.2896 4.3635 14.2138 4.59089 14.138C4.74248 14.0622 4.96987 14.138 5.12147 14.2138C5.34886 14.3654 5.50045 14.7444 5.34886 15.0475C5.27306 15.1991 5.19726 15.5023 5.19726 15.7297C5.27306 16.2603 5.57625 16.4119 5.80364 16.4877C6.10682 16.4877 6.25842 16.3361 6.33421 16.2603C6.48581 16.1845 6.48581 16.1845 6.41001 16.1845Z" fill="white"/>
<path d="M22.1757 15.1991C22.1757 15.1991 22.0999 14.896 22.0241 14.5928C21.9483 14.2896 21.8725 14.0622 21.8725 14.0622C22.2515 13.5316 22.2515 13.001 22.1757 12.6978C22.0999 12.3189 21.9483 12.0157 21.6451 11.7125C21.342 11.4093 20.7356 11.1061 19.9018 10.8787C19.826 10.8787 19.5228 10.7271 19.447 10.7271C19.447 10.7271 19.447 9.66598 19.3712 9.2112C19.3712 8.90801 19.2954 8.37744 19.1439 7.92266C18.9923 7.24049 18.6133 6.70991 18.2343 6.33093C19.3712 5.19398 20.0534 3.90543 20.0534 2.84428C20.0534 0.797771 17.4763 0.115601 14.3687 1.40414L13.6865 1.70733L12.4737 0.494584C8.9113 -2.61308 -2.3824 9.81757 1.25584 12.9252L2.0138 13.6074C1.78641 14.138 1.71062 14.7444 1.78641 15.4265C1.86221 16.2603 2.31699 17.0941 2.99916 17.7004C3.68133 18.3068 4.51509 18.6858 5.34886 18.6858C6.7132 21.945 9.97245 23.9158 13.6865 23.9916C17.7037 24.1431 21.1146 22.2482 22.4789 18.8374C22.5547 18.61 22.9337 17.5488 22.9337 16.5635C23.0853 15.6539 22.5547 15.1991 22.1757 15.1991ZM5.72784 17.7762C5.57625 17.7762 5.50045 17.7762 5.34886 17.7762C4.13611 17.7762 2.84757 16.6393 2.69597 15.3507C2.54438 13.9106 3.30235 12.8494 4.59089 12.5463C4.74248 12.5463 4.96987 12.4705 5.12147 12.4705C5.87943 12.5463 6.94059 13.0768 7.16798 14.6686C7.39537 16.1087 7.09218 17.5488 5.72784 17.7762ZM4.4393 11.7125C3.60553 11.8641 2.92336 12.3189 2.46858 12.9252C2.24119 12.6978 1.71062 12.3189 1.63482 12.0915C0.95265 10.8029 2.39279 8.22584 3.37814 6.78571C5.87943 3.22326 9.82086 0.494584 11.64 1.02516C11.9432 1.10096 12.9285 2.23791 12.9285 2.23791C12.9285 2.23791 11.1094 3.22326 9.44188 4.6634C7.16798 6.40672 5.42465 8.98381 4.4393 11.7125ZM17.1731 17.2456C17.1731 17.1699 17.1731 17.0941 17.1731 17.0941C17.1731 17.0941 15.2782 17.3972 13.4591 16.7151C13.6865 16.1087 14.1413 16.3361 14.975 16.3361C16.4152 16.4119 17.6279 16.1845 18.6133 15.9571C19.447 15.7297 20.5082 15.2749 21.342 14.5928C21.6451 15.1991 21.7209 15.8813 21.7209 15.8813C21.7209 15.8813 21.9483 15.8055 22.0999 15.9571C22.2515 16.0329 22.4031 16.2603 22.3273 16.8667C22.1757 17.9278 21.7209 18.7616 20.963 19.5953C20.5082 20.1259 19.9776 20.5049 19.2954 20.8081C18.9923 20.9597 18.6133 21.1113 18.2343 21.2629C15.354 22.1724 12.4737 21.1871 11.5642 18.989C11.4884 18.8374 11.4126 18.6858 11.4126 18.4584C11.0336 17.0183 11.3368 15.2749 12.3979 14.2138C12.4737 14.138 12.5495 14.0622 12.5495 13.9864C12.5495 13.9106 12.4737 13.8348 12.4737 13.759C12.0948 13.2284 10.8062 12.3189 11.1094 10.4997C11.261 9.2112 12.3979 8.30164 13.4591 8.37744H13.6865C14.1413 8.37744 14.5203 8.45323 14.8992 8.45323C15.5056 8.45323 16.112 8.37744 16.7184 7.84686C16.9457 7.69527 17.0973 7.46788 17.4005 7.46788H17.7037C17.8553 7.46788 18.0069 7.54367 18.1585 7.61947C18.6891 7.99845 18.7649 8.83222 18.7649 9.43859C18.7649 9.81757 18.8407 10.6513 18.8407 10.8787C18.8407 11.4093 18.9923 11.5609 19.2954 11.6367C19.447 11.7125 19.5986 11.7125 19.826 11.7883C20.5082 12.0157 20.963 12.1673 21.1904 12.4705C21.342 12.6221 21.4178 12.7736 21.4178 13.001C21.4935 13.6074 20.963 14.3654 19.5228 15.0475C17.9311 15.8055 15.9604 15.9571 14.6718 15.8055C14.596 15.8055 14.2171 15.7297 14.2171 15.7297C13.1559 15.5781 12.5495 16.9425 13.1559 17.9278C13.5349 18.5342 14.6718 18.9132 15.8088 18.9132C18.3859 18.9132 20.3566 17.7762 21.1146 16.8667C21.1146 16.8667 21.1146 16.8667 21.1904 16.7909C21.1904 16.7151 21.1904 16.7151 21.1146 16.7151C20.5082 17.0941 17.8553 18.7616 14.975 18.3068C14.975 18.3068 14.596 18.231 14.2929 18.1552C14.0655 18.0794 13.5349 17.7762 13.4591 17.2456C15.6572 17.9278 17.1731 17.2456 17.1731 17.2456ZM9.06289 6.78571C9.97245 5.72455 11.0336 4.89079 12.019 4.36021C12.019 4.36021 12.0948 4.36021 12.0948 4.43601C12.019 4.5876 11.8674 4.89079 11.7916 5.11818C11.7916 5.11818 11.7916 5.19398 11.8674 5.19398C12.4737 4.81499 13.5349 4.36021 14.4445 4.28442C14.5203 4.28442 14.5203 4.36021 14.4445 4.36021C14.2929 4.43601 14.1413 4.5876 14.0655 4.7392V4.81499C14.7476 4.81499 15.6572 5.04238 16.2636 5.42137C16.3394 5.42137 16.2636 5.49716 16.2636 5.49716C15.354 5.26977 13.8381 5.11818 12.3222 5.49716C10.882 5.80035 9.82086 6.33093 9.06289 6.78571C9.06289 6.9373 8.9871 6.8615 9.06289 6.78571Z" fill="white"/>
</svg>
