<svg width="48" height="48" viewBox="0 0 48 48" fill="none" xmlns="http://www.w3.org/2000/svg">
<rect width="48" height="48" rx="24" fill="#437EF7"/>
<path d="M32 20C34.9455 20 37.3333 17.6122 37.3333 14.6666C37.3333 11.7211 34.9455 9.33331 32 9.33331C29.0544 9.33331 26.6666 11.7211 26.6666 14.6666C26.6666 15.1696 26.7362 15.6563 26.8664 16.1176L19.7887 20.2463C18.8222 19.2708 17.4816 18.6666 16 18.6666C13.0544 18.6666 10.6666 21.0545 10.6666 24C10.6666 26.9455 13.0544 29.3333 16 29.3333C17.4816 29.3333 18.8222 28.7291 19.7887 27.7537L26.8664 31.8823C26.7362 32.3437 26.6666 32.8304 26.6666 33.3333C26.6666 36.2788 29.0544 38.6666 32 38.6666C34.9455 38.6666 37.3333 36.2788 37.3333 33.3333C37.3333 30.3878 34.9455 28 32 28C30.5183 28 29.1777 28.6042 28.2113 29.5796L21.1335 25.451C21.2637 24.9896 21.3333 24.5029 21.3333 24C21.3333 23.497 21.2637 23.0103 21.1335 22.549L28.2113 18.4203C29.1777 19.3958 30.5183 20 32 20Z" fill="white"/>
</svg>
