<svg width="48" height="48" viewBox="0 0 48 48" fill="#0000FF" xmlns="http://www.w3.org/2000/svg">
<rect width="48" height="48" rx="24" fill="#437EF7"/>
<path d="M18.2768 16.3912C18.5267 15.8691 18.6667 15.2842 18.6667 14.6667C18.6667 12.4575 16.8758 10.6667 14.6667 10.6667C12.4575 10.6667 10.6667 12.4575 10.6667 14.6667C10.6667 16.8758 12.4575 18.6667 14.6667 18.6667C15.2842 18.6667 15.869 18.5268 16.3912 18.2769L18.4379 20.3235C17.7398 21.3774 17.3333 22.6412 17.3333 24C17.3333 25.3588 17.7398 26.6226 18.4379 27.6765L16.6907 29.4237C16.4704 29.3648 16.2389 29.3334 16 29.3334C14.5272 29.3334 13.3333 30.5273 13.3333 32C13.3333 33.4728 14.5272 34.6667 16 34.6667C17.4727 34.6667 18.6667 33.4728 18.6667 32C18.6667 31.7611 18.6352 31.5296 18.5763 31.3093L20.3235 29.5622C21.3774 30.2602 22.6412 30.6667 24 30.6667C25.3588 30.6667 26.6226 30.2602 27.6765 29.5622L29.7232 31.6088C29.4733 32.131 29.3333 32.7158 29.3333 33.3334C29.3333 35.5425 31.1242 37.3334 33.3333 37.3334C35.5425 37.3334 37.3333 35.5425 37.3333 33.3334C37.3333 31.1242 35.5425 29.3334 33.3333 29.3334C32.7158 29.3334 32.1309 29.4733 31.6088 29.7232L29.5621 27.6765C30.2602 26.6226 30.6667 25.3588 30.6667 24C30.6667 22.6412 30.2602 21.3774 29.5621 20.3235L31.3093 18.5764C31.5296 18.6353 31.7611 18.6667 32 18.6667C33.4727 18.6667 34.6667 17.4728 34.6667 16C34.6667 14.5273 33.4728 13.3334 32 13.3334C30.5272 13.3334 29.3333 14.5273 29.3333 16C29.3333 16.2389 29.3647 16.4704 29.4236 16.6907L27.6765 18.4379C26.6226 17.7399 25.3588 17.3334 24 17.3334C22.6412 17.3334 21.3774 17.7399 20.3235 18.4379L18.2768 16.3912Z" fill="white"/>
</svg>
